<svg width="17" height="20" viewBox="0 0 17 20" fill="none" xmlns="http://www.w3.org/2000/svg">
<path d="M4.25 5.5C4.25 5.77614 4.47386 6 4.75 6C5.02614 6 5.25 5.77614 5.25 5.5H4.25ZM5.25 14.5C5.25 14.2239 5.02614 14 4.75 14C4.47386 14 4.25 14.2239 4.25 14.5H5.25ZM5.77377 18.8038L5.99347 18.3547L5.99346 18.3547L5.77377 18.8038ZM4.95436 18.0172L4.51271 18.2516L4.51271 18.2516L4.95436 18.0172ZM15.7956 18.0172L16.2373 18.2516L16.2373 18.2516L15.7956 18.0172ZM14.9762 18.8038L14.7565 18.3547L14.7565 18.3547L14.9762 18.8038ZM14.9762 1.19619L14.7565 1.64534L14.7565 1.64534L14.9762 1.19619ZM15.7956 1.98282L15.354 2.21722L15.354 2.21722L15.7956 1.98282ZM4.95436 1.98282L4.51271 1.74841L4.51271 1.74841L4.95436 1.98282ZM5.77377 1.19619L5.55407 0.747041L5.55407 0.747041L5.77377 1.19619ZM11.3125 10.5C11.5886 10.5 11.8125 10.2761 11.8125 10C11.8125 9.72386 11.5886 9.5 11.3125 9.5L11.3125 10.5ZM1 9.5C0.723858 9.5 0.5 9.72386 0.5 10C0.5 10.2761 0.723858 10.5 1 10.5L1 9.5ZM9.09123 12.3393C8.89203 12.5305 8.88557 12.8471 9.07681 13.0463C9.26804 13.2455 9.58456 13.2519 9.78377 13.0607L9.09123 12.3393ZM11.1893 11.0182L11.5356 11.3789L11.5356 11.3789L11.1893 11.0182ZM11.1893 8.98177L11.5356 8.62107L11.5356 8.62107L11.1893 8.98177ZM9.78376 6.93931C9.58456 6.74807 9.26804 6.75453 9.07681 6.95373C8.88557 7.15294 8.89203 7.46946 9.09123 7.66069L9.78376 6.93931ZM11.8158 10.2781L11.3422 10.1178L11.3422 10.1178L11.8158 10.2781ZM11.8158 9.72189L11.3422 9.88218L11.8158 9.72189ZM5.25 5.5V3.88H4.25V5.5H5.25ZM7.75 1.5H13V0.5H7.75V1.5ZM15.5 3.88V16.12H16.5V3.88H15.5ZM13 18.5H7.75V19.5H13V18.5ZM5.25 16.12V14.5H4.25V16.12H5.25ZM7.75 18.5C7.21703 18.5 6.84617 18.4996 6.5576 18.477C6.2743 18.4548 6.11361 18.4134 5.99347 18.3547L5.55407 19.253C5.83501 19.3904 6.13739 19.4471 6.47941 19.4739C6.81616 19.5004 7.23287 19.5 7.75 19.5V18.5ZM4.25 16.12C4.25 16.6155 4.24958 17.0184 4.27735 17.3446C4.30566 17.6774 4.36595 17.9751 4.51271 18.2516L5.39601 17.7828C5.33841 17.6743 5.29652 17.5274 5.27374 17.2598C5.25042 16.9858 5.25 16.6326 5.25 16.12H4.25ZM5.99346 18.3547C5.73299 18.2273 5.52503 18.0259 5.39601 17.7828L4.51271 18.2516C4.74322 18.6859 5.10894 19.0352 5.55407 19.253L5.99346 18.3547ZM15.5 16.12C15.5 16.6326 15.4996 16.9858 15.4763 17.2598C15.4535 17.5274 15.4116 17.6743 15.354 17.7828L16.2373 18.2516C16.3841 17.9751 16.4443 17.6774 16.4727 17.3446C16.5004 17.0184 16.5 16.6155 16.5 16.12H15.5ZM13 19.5C13.5171 19.5 13.9338 19.5004 14.2706 19.4739C14.6126 19.4471 14.915 19.3904 15.1959 19.253L14.7565 18.3547C14.6364 18.4134 14.4757 18.4548 14.1924 18.477C13.9038 18.4996 13.533 18.5 13 18.5V19.5ZM15.354 17.7828C15.225 18.0259 15.017 18.2273 14.7565 18.3547L15.1959 19.253C15.6411 19.0352 16.0068 18.6859 16.2373 18.2516L15.354 17.7828ZM13 1.5C13.533 1.5 13.9038 1.50036 14.1924 1.52299C14.4757 1.54521 14.6364 1.58657 14.7565 1.64534L15.1959 0.747041C14.915 0.60962 14.6126 0.55288 14.2706 0.526054C13.9338 0.499641 13.5171 0.5 13 0.5V1.5ZM16.5 3.88C16.5 3.38454 16.5004 2.98163 16.4727 2.65536C16.4443 2.32263 16.3841 2.02493 16.2373 1.74841L15.354 2.21722C15.4116 2.32575 15.4535 2.47259 15.4763 2.74016C15.4996 3.0142 15.5 3.36736 15.5 3.88H16.5ZM14.7565 1.64534C15.017 1.77275 15.225 1.97414 15.354 2.21722L16.2373 1.74841C16.0068 1.31411 15.6411 0.964773 15.1959 0.747041L14.7565 1.64534ZM5.25 3.88C5.25 3.36736 5.25042 3.0142 5.27374 2.74016C5.29652 2.47259 5.33841 2.32575 5.39601 2.21722L4.51271 1.74841C4.36595 2.02493 4.30566 2.32263 4.27735 2.65536C4.24958 2.98163 4.25 3.38454 4.25 3.88H5.25ZM7.75 0.5C7.23287 0.5 6.81616 0.499641 6.47941 0.526054C6.13739 0.55288 5.83501 0.60962 5.55407 0.747041L5.99347 1.64534C6.11361 1.58657 6.2743 1.54521 6.5576 1.52299C6.84617 1.50036 7.21703 1.5 7.75 1.5V0.5ZM5.39601 2.21722C5.52503 1.97414 5.73299 1.77275 5.99347 1.64534L5.55407 0.747041C5.10894 0.964773 4.74322 1.31411 4.51271 1.74841L5.39601 2.21722ZM11.3125 9.5L1 9.5L1 10.5L11.3125 10.5L11.3125 9.5ZM9.78377 13.0607L11.5356 11.3789L10.8431 10.6575L9.09123 12.3393L9.78377 13.0607ZM11.5356 8.62107L9.78376 6.93931L9.09123 7.66069L10.8431 9.34246L11.5356 8.62107ZM11.5356 11.3789C11.7152 11.2065 11.872 11.0565 11.9903 10.9228C12.112 10.7851 12.2242 10.6311 12.2894 10.4384L11.3422 10.1178C11.3378 10.1307 11.3224 10.1685 11.2412 10.2604C11.1564 10.3562 11.0347 10.4736 10.8431 10.6575L11.5356 11.3789ZM10.8431 9.34246C11.0347 9.52642 11.1564 9.64376 11.2411 9.73964C11.3224 9.83155 11.3378 9.86933 11.3422 9.88218L12.2894 9.56159C12.2242 9.36895 12.112 9.21488 11.9903 9.0772C11.872 8.9435 11.7152 8.79352 11.5356 8.62107L10.8431 9.34246ZM12.2894 10.4384C12.3858 10.1537 12.3858 9.84632 12.2894 9.56159L11.3422 9.88218C11.3682 9.95897 11.3682 10.041 11.3422 10.1178L12.2894 10.4384Z" fill="white"/>
</svg>
